# Blender 4.0.1
# www.blender.org
mtllib betterGunPart.mtl
o Cube
v 2.417626 -0.112752 -2.067946
v 2.417626 -0.617085 -2.067946
v 0.133577 -0.112752 2.420845
v 0.133577 -0.617085 2.420845
v 0.635115 -0.112752 -2.974948
v 0.635115 -0.617085 -2.974948
v -1.648934 -0.112752 1.513843
v -1.648934 -0.617085 1.513843
vn -0.0000 1.0000 -0.0000
vn -0.4535 -0.0000 0.8913
vn -0.8913 -0.0000 -0.4535
vn -0.0000 -1.0000 -0.0000
vn 0.8913 -0.0000 0.4535
vn 0.4535 -0.0000 -0.8913
vt 0.625000 0.500000
vt 0.875000 0.500000
vt 0.875000 0.750000
vt 0.625000 0.750000
vt 0.375000 0.750000
vt 0.625000 1.000000
vt 0.375000 1.000000
vt 0.375000 0.000000
vt 0.625000 0.000000
vt 0.625000 0.250000
vt 0.375000 0.250000
vt 0.125000 0.500000
vt 0.375000 0.500000
vt 0.125000 0.750000
s 0
usemtl Material
f 1/1/1 5/2/1 7/3/1 3/4/1
f 4/5/2 3/4/2 7/6/2 8/7/2
f 8/8/3 7/9/3 5/10/3 6/11/3
f 6/12/4 2/13/4 4/5/4 8/14/4
f 2/13/5 1/1/5 3/4/5 4/5/5
f 6/11/6 5/10/6 1/1/6 2/13/6
o Cube.001
v 3.826107 -0.133394 0.718457
v 3.757670 -0.632272 0.690362
v -0.674139 0.648174 -2.197548
v -0.742575 0.149296 -2.225642
v 2.208781 0.022801 1.884587
v 2.140344 -0.476077 1.856492
v 3.826107 -0.133394 0.718457
v -0.674139 0.648174 -2.197548
v -0.742575 0.149296 -2.225642
v 3.757670 -0.632272 0.690362
vn -0.1357 -0.9892 -0.0557
vn 0.5724 -0.1242 0.8105
vn -0.8087 0.0781 0.5831
vn 0.1357 0.9892 0.0557
vn 0.5403 -0.0268 -0.8410
vt 0.125000 0.500000
vt 0.375000 0.750000
vt 0.125000 0.750000
vt 0.625000 0.750000
vt 0.625000 1.000000
vt 0.375000 1.000000
vt 0.375000 0.000000
vt 0.625000 0.000000
vt 0.625000 0.250000
vt 0.375000 0.250000
vt 0.875000 0.500000
vt 0.875000 0.750000
s 0
usemtl Material.001
f 12/15/7 17/15/7 18/16/7 10/16/7 14/17/7
f 10/16/8 9/18/8 13/19/8 14/20/8
f 14/21/9 13/22/9 11/23/9 12/24/9
f 15/18/10 16/25/10 11/25/10 13/26/10 9/18/10
f 18/16/10 15/18/10 9/18/10 10/16/10
f 15/18/11 18/16/11 17/24/11 16/23/11
f 12/24/10 11/23/10 16/23/10 17/24/10
o Cylinder
v -0.309286 -0.671537 4.281894
v -0.462168 0.217154 1.431945
v -0.181492 -0.676261 4.273565
v -0.334374 0.212430 1.423617
v -0.054631 -0.656442 4.272940
v -0.207513 0.232249 1.422992
v 0.066424 -0.612842 4.280042
v -0.086458 0.275848 1.430093
v 0.177018 -0.547137 4.294598
v 0.024137 0.341553 1.444649
v 0.272904 -0.461851 4.316048
v 0.120022 0.426839 1.466100
v 0.350394 -0.360262 4.343570
v 0.197513 0.528428 1.493621
v 0.406513 -0.246275 4.376103
v 0.253631 0.642416 1.526155
v 0.439102 -0.124268 4.412400
v 0.286220 0.764422 1.562452
v 0.446911 0.001068 4.451064
v 0.294029 0.889758 1.601116
v 0.429637 0.124917 4.490611
v 0.276755 1.013608 1.640662
v 0.387946 0.242520 4.529519
v 0.235065 1.131211 1.679571
v 0.323440 0.349358 4.566294
v 0.170558 1.238048 1.716346
v 0.238597 0.441324 4.599523
v 0.085715 1.330015 1.749575
v 0.136678 0.514885 4.627929
v -0.016203 1.403576 1.777980
v 0.021600 0.567214 4.650419
v -0.131282 1.455904 1.800471
v -0.102215 0.596299 4.666131
v -0.255097 1.484989 1.816182
v -0.230009 0.601022 4.674459
v -0.382891 1.489713 1.824511
v -0.356871 0.581204 4.675084
v -0.509753 1.469894 1.825136
v -0.477925 0.537604 4.667983
v -0.630807 1.426294 1.818034
v -0.588520 0.471899 4.653427
v -0.741402 1.360589 1.803478
v -0.684405 0.386613 4.631976
v -0.837287 1.275303 1.782028
v -0.761896 0.285024 4.604455
v -0.914778 1.173715 1.754506
v -0.818014 0.171037 4.571920
v -0.970896 1.059727 1.721972
v -0.850604 0.049030 4.535624
v -1.003486 0.937721 1.685676
v -0.858412 -0.076306 4.496960
v -1.011294 0.812384 1.647012
v -0.841139 -0.200155 4.457414
v -0.994021 0.688535 1.607465
v -0.799448 -0.317759 4.418505
v -0.952330 0.570932 1.568557
v -0.734942 -0.424596 4.381730
v -0.887823 0.464094 1.531782
v -0.650099 -0.516562 4.348501
v -0.802981 0.372128 1.498553
v -0.548180 -0.590123 4.320096
v -0.701062 0.298567 1.470147
v -0.433102 -0.642452 4.297605
v -0.585984 0.246239 1.447657
vn -0.0545 -0.9541 -0.2946
vn 0.1457 -0.9422 -0.3016
vn 0.3390 -0.8928 -0.2966
vn 0.5173 -0.8087 -0.2799
vn 0.6740 -0.6942 -0.2526
vn 0.8037 -0.5545 -0.2160
vn 0.9024 -0.3953 -0.1717
vn 0.9674 -0.2223 -0.1212
vn 0.9969 -0.0416 -0.0665
vn 0.9900 0.1410 -0.0091
vn 0.9464 0.3193 0.0488
vn 0.8669 0.4872 0.1054
vn 0.7536 0.6379 0.1585
vn 0.6098 0.7653 0.2059
vn 0.4406 0.8634 0.2456
vn 0.2528 0.9274 0.2756
vn 0.0545 0.9541 0.2946
vn -0.1457 0.9422 0.3016
vn -0.3390 0.8928 0.2966
vn -0.5173 0.8087 0.2799
vn -0.6740 0.6942 0.2526
vn -0.8037 0.5545 0.2160
vn -0.9024 0.3953 0.1717
vn -0.9674 0.2223 0.1212
vn -0.9969 0.0416 0.0665
vn -0.9900 -0.1410 0.0091
vn -0.9464 -0.3193 -0.0488
vn -0.8669 -0.4872 -0.1054
vn -0.7536 -0.6379 -0.1585
vn -0.6098 -0.7653 -0.2059
vn -0.0511 0.2973 -0.9534
vn -0.4406 -0.8634 -0.2456
vn -0.2528 -0.9274 -0.2756
vn 0.0511 -0.2973 0.9534
vt 1.000000 0.500000
vt 1.000000 1.000000
vt 0.968750 1.000000
vt 0.968750 0.500000
vt 0.937500 1.000000
vt 0.937500 0.500000
vt 0.906250 1.000000
vt 0.906250 0.500000
vt 0.875000 1.000000
vt 0.875000 0.500000
vt 0.843750 1.000000
vt 0.843750 0.500000
vt 0.812500 1.000000
vt 0.812500 0.500000
vt 0.781250 1.000000
vt 0.781250 0.500000
vt 0.750000 1.000000
vt 0.750000 0.500000
vt 0.718750 1.000000
vt 0.718750 0.500000
vt 0.687500 1.000000
vt 0.687500 0.500000
vt 0.656250 1.000000
vt 0.656250 0.500000
vt 0.625000 1.000000
vt 0.625000 0.500000
vt 0.593750 1.000000
vt 0.593750 0.500000
vt 0.562500 1.000000
vt 0.562500 0.500000
vt 0.531250 1.000000
vt 0.531250 0.500000
vt 0.500000 1.000000
vt 0.500000 0.500000
vt 0.468750 1.000000
vt 0.468750 0.500000
vt 0.437500 1.000000
vt 0.437500 0.500000
vt 0.406250 1.000000
vt 0.406250 0.500000
vt 0.375000 1.000000
vt 0.375000 0.500000
vt 0.343750 1.000000
vt 0.343750 0.500000
vt 0.312500 1.000000
vt 0.312500 0.500000
vt 0.281250 1.000000
vt 0.281250 0.500000
vt 0.250000 1.000000
vt 0.250000 0.500000
vt 0.218750 1.000000
vt 0.218750 0.500000
vt 0.187500 1.000000
vt 0.187500 0.500000
vt 0.156250 1.000000
vt 0.156250 0.500000
vt 0.125000 1.000000
vt 0.125000 0.500000
vt 0.093750 1.000000
vt 0.093750 0.500000
vt 0.062500 1.000000
vt 0.062500 0.500000
vt 0.296822 0.485388
vt 0.250000 0.490000
vt 0.203178 0.485388
vt 0.158156 0.471731
vt 0.116663 0.449553
vt 0.080294 0.419706
vt 0.050447 0.383337
vt 0.028269 0.341844
vt 0.014612 0.296822
vt 0.010000 0.250000
vt 0.014612 0.203178
vt 0.028269 0.158156
vt 0.050447 0.116663
vt 0.080294 0.080294
vt 0.116663 0.050447
vt 0.158156 0.028269
vt 0.203178 0.014612
vt 0.250000 0.010000
vt 0.296822 0.014612
vt 0.341844 0.028269
vt 0.383337 0.050447
vt 0.419706 0.080294
vt 0.449553 0.116663
vt 0.471731 0.158156
vt 0.485388 0.203178
vt 0.490000 0.250000
vt 0.485388 0.296822
vt 0.471731 0.341844
vt 0.449553 0.383337
vt 0.419706 0.419706
vt 0.383337 0.449553
vt 0.341844 0.471731
vt 0.031250 1.000000
vt 0.031250 0.500000
vt 0.000000 1.000000
vt 0.000000 0.500000
vt 0.750000 0.490000
vt 0.796822 0.485388
vt 0.841844 0.471731
vt 0.883337 0.449553
vt 0.919706 0.419706
vt 0.949553 0.383337
vt 0.971731 0.341844
vt 0.985388 0.296822
vt 0.990000 0.250000
vt 0.985388 0.203178
vt 0.971731 0.158156
vt 0.949553 0.116663
vt 0.919706 0.080294
vt 0.883337 0.050447
vt 0.841844 0.028269
vt 0.796822 0.014612
vt 0.750000 0.010000
vt 0.703178 0.014612
vt 0.658156 0.028269
vt 0.616663 0.050447
vt 0.580294 0.080294
vt 0.550447 0.116663
vt 0.528269 0.158156
vt 0.514612 0.203178
vt 0.510000 0.250000
vt 0.514612 0.296822
vt 0.528269 0.341844
vt 0.550447 0.383337
vt 0.580294 0.419706
vt 0.616663 0.449553
vt 0.658156 0.471731
vt 0.703178 0.485388
s 0
f 19/27/12 20/28/12 22/29/12 21/30/12
f 21/30/13 22/29/13 24/31/13 23/32/13
f 23/32/14 24/31/14 26/33/14 25/34/14
f 25/34/15 26/33/15 28/35/15 27/36/15
f 27/36/16 28/35/16 30/37/16 29/38/16
f 29/38/17 30/37/17 32/39/17 31/40/17
f 31/40/18 32/39/18 34/41/18 33/42/18
f 33/42/19 34/41/19 36/43/19 35/44/19
f 35/44/20 36/43/20 38/45/20 37/46/20
f 37/46/21 38/45/21 40/47/21 39/48/21
f 39/48/22 40/47/22 42/49/22 41/50/22
f 41/50/23 42/49/23 44/51/23 43/52/23
f 43/52/24 44/51/24 46/53/24 45/54/24
f 45/54/25 46/53/25 48/55/25 47/56/25
f 47/56/26 48/55/26 50/57/26 49/58/26
f 49/58/27 50/57/27 52/59/27 51/60/27
f 51/60/28 52/59/28 54/61/28 53/62/28
f 53/62/29 54/61/29 56/63/29 55/64/29
f 55/64/30 56/63/30 58/65/30 57/66/30
f 57/66/31 58/65/31 60/67/31 59/68/31
f 59/68/32 60/67/32 62/69/32 61/70/32
f 61/70/33 62/69/33 64/71/33 63/72/33
f 63/72/34 64/71/34 66/73/34 65/74/34
f 65/74/35 66/73/35 68/75/35 67/76/35
f 67/76/36 68/75/36 70/77/36 69/78/36
f 69/78/37 70/77/37 72/79/37 71/80/37
f 71/80/38 72/79/38 74/81/38 73/82/38
f 73/82/39 74/81/39 76/83/39 75/84/39
f 75/84/40 76/83/40 78/85/40 77/86/40
f 77/86/41 78/85/41 80/87/41 79/88/41
f 22/89/42 20/90/42 82/91/42 80/92/42 78/93/42 76/94/42 74/95/42 72/96/42 70/97/42 68/98/42 66/99/42 64/100/42 62/101/42 60/102/42 58/103/42 56/104/42 54/105/42 52/106/42 50/107/42 48/108/42 46/109/42 44/110/42 42/111/42 40/112/42 38/113/42 36/114/42 34/115/42 32/116/42 30/117/42 28/118/42 26/119/42 24/120/42
f 79/88/43 80/87/43 82/121/43 81/122/43
f 81/122/44 82/121/44 20/123/44 19/124/44
f 19/125/45 21/126/45 23/127/45 25/128/45 27/129/45 29/130/45 31/131/45 33/132/45 35/133/45 37/134/45 39/135/45 41/136/45 43/137/45 45/138/45 47/139/45 49/140/45 51/141/45 53/142/45 55/143/45 57/144/45 59/145/45 61/146/45 63/147/45 65/148/45 67/149/45 69/150/45 71/151/45 73/152/45 75/153/45 77/154/45 79/155/45 81/156/45
